<?xml version="1.0" encoding="UTF-8" standalone="no"?><!DOCTYPE svg PUBLIC "-//W3C//DTD SVG 1.1//EN" "http://www.w3.org/Graphics/SVG/1.1/DTD/svg11.dtd"><svg width="100%" height="100%" viewBox="0 0 100 20" version="1.1" xmlns="http://www.w3.org/2000/svg" xmlns:xlink="http://www.w3.org/1999/xlink" xml:space="preserve" xmlns:serif="http://www.serif.com/" style="fill-rule:evenodd;clip-rule:evenodd;stroke-linejoin:round;stroke-miterlimit:2;"><path d="M21.184,20c0.357,-0.13 0.72,-0.264 1.088,-0.402l1.768,-0.661c9.6,-3.59 15.607,-4.937 25.96,-4.937c10.271,0 15.362,1.222 24.629,4.928c0.955,0.383 1.869,0.74 2.75,1.072l6.225,0c-2.51,-0.73 -5.139,-1.691 -8.233,-2.928c-9.483,-3.794 -14.809,-5.072 -25.371,-5.072c-10.626,0 -16.855,1.397 -26.66,5.063l-1.767,0.662c-2.475,0.923 -4.66,1.674 -6.724,2.275l6.335,0Zm0,-20c-7.926,2.892 -13.107,4 -21.184,4l0,-2c5.744,0 9.951,-0.574 14.85,-2l6.334,0Zm56.196,0c7.859,2.966 13.122,4 22.62,4l0,-2c-6.842,0 -11.386,-0.542 -16.396,-2l-6.225,0l0.001,0Zm-77.38,14c8.44,0 13.718,-1.21 22.272,-4.402l1.768,-0.661c9.6,-3.59 15.607,-4.937 25.96,-4.937c10.271,0 15.362,1.222 24.629,4.928c9.483,3.794 14.809,5.072 25.371,5.072l0,-2c-10.271,0 -15.362,-1.222 -24.629,-4.928c-9.483,-3.794 -14.809,-5.072 -25.371,-5.072c-10.626,0 -16.855,1.397 -26.66,5.063l-1.767,0.662c-8.35,3.115 -13.41,4.275 -21.573,4.275l0,2Z" style="fill:#e4e4e4;fill-opacity:0.2;"/></svg>