<?xml version="1.0" encoding="UTF-8" standalone="no"?><!DOCTYPE svg PUBLIC "-//W3C//DTD SVG 1.1//EN" "http://www.w3.org/Graphics/SVG/1.1/DTD/svg11.dtd"><svg width="100%" height="100%" viewBox="0 0 862 714" version="1.1" xmlns="http://www.w3.org/2000/svg" xmlns:xlink="http://www.w3.org/1999/xlink" xml:space="preserve" xmlns:serif="http://www.serif.com/" style="fill-rule:evenodd;clip-rule:evenodd;stroke-linecap:round;stroke-linejoin:round;stroke-miterlimit:1.5;"><g id="Pattern2"><g id="Snare"><path d="M330.941,492.376l6.874,61.701c0,0 28.431,30.04 87.094,21.915c58.663,-8.126 76.478,-38.693 76.478,-38.693l-5.318,-66.202" style="fill:none;stroke:#000;stroke-width:5px;"/><path id="Drumstick" d="M494.339,454.645c0.855,-0.477 1.865,-0.879 2.975,-1.156c3.61,-0.9 6.911,-0.141 7.369,1.693c0.457,1.834 -2.102,4.054 -5.712,4.954c-1.382,0.344 -2.719,0.446 -3.868,0.337c-0.056,0.017 -0.113,0.033 -0.171,0.048l-155.178,38.69c-1.156,0.288 -2.256,-0.126 -2.455,-0.925l-0.721,-2.893c-0.199,-0.799 0.577,-1.681 1.733,-1.969l155.178,-38.69c0.291,-0.073 0.579,-0.101 0.85,-0.089Z" style="fill:#ebebeb;fill-opacity:0;stroke:#000;stroke-width:5px;"/><path id="Drumstick1" serif:id="Drumstick" d="M489.007,448.496c0.854,-0.477 1.865,-0.878 2.975,-1.155c3.609,-0.9 6.911,-0.142 7.368,1.693c0.458,1.834 -2.101,4.053 -5.711,4.953c-1.382,0.345 -2.719,0.446 -3.869,0.337c-0.056,0.018 -0.113,0.034 -0.171,0.048l-155.177,38.69c-1.156,0.288 -2.256,-0.126 -2.455,-0.924l-0.722,-2.894c-0.199,-0.798 0.578,-1.681 1.734,-1.969l155.178,-38.69c0.291,-0.073 0.579,-0.101 0.85,-0.089Z" style="fill:#ebebeb;fill-opacity:0;stroke:#000;stroke-width:5px;"/><path id="Drumstick2" serif:id="Drumstick" d="M489.75,461.813c3.456,2.444 5.524,5.281 5.914,8.453c1.818,14.811 -33.628,31.369 -79.106,36.953c-45.478,5.584 -83.876,-1.907 -85.695,-16.718c-1.818,-14.811 33.627,-31.369 79.105,-36.953c21.692,-2.664 41.774,-2.352 57.044,0.309l21.145,-5.272c0.291,-0.073 0.579,-0.101 0.85,-0.089c0.854,-0.477 1.865,-0.878 2.975,-1.155c3.609,-0.9 6.911,-0.142 7.368,1.693c0.458,1.834 -2.101,4.053 -5.711,4.953c-1.382,0.345 -2.719,0.446 -3.869,0.337c-0.056,0.018 -0.113,0.034 -0.171,0.048l-10.14,2.528c0.757,0.253 1.49,0.514 2.2,0.783l11.83,-2.949c0.291,-0.073 0.579,-0.101 0.85,-0.089c0.855,-0.477 1.865,-0.879 2.975,-1.156c3.61,-0.9 6.911,-0.141 7.369,1.693c0.457,1.834 -2.102,4.054 -5.712,4.954c-1.382,0.344 -2.719,0.446 -3.868,0.337c-0.056,0.017 -0.113,0.033 -0.171,0.048l-5.182,1.292Z" style="fill:#ebebeb;fill-opacity:0;stroke:#000;stroke-width:5px;"/><path d="M372.534,508.742l4.839,64.255" style="fill:none;stroke:#000;stroke-width:5px;"/><path d="M453.332,501.761l4.839,67.367" style="fill:none;stroke:#000;stroke-width:5px;"/></g><g id="Controller"><path d="M279.281,645.486c-0.994,-0.021 11.226,34.071 25.706,27.332c14.236,-6.625 7.86,-19.006 -7.357,-78.174c0,0 1.114,-8.802 -45.957,-8.077" style="fill:none;stroke:#000;stroke-width:5px;"/><path d="M253.329,645.486l24.665,0" style="fill:none;stroke:#000;stroke-width:5px;"/><path d="M226.329,645.486c0.994,-0.021 -11.226,34.071 -25.706,27.332c-14.237,-6.625 -7.86,-19.006 7.357,-78.174c0,0 -1.114,-8.802 45.956,-8.077" style="fill:none;stroke:#000;stroke-width:5px;"/><path d="M226.329,645.486l24.665,0" style="fill:none;stroke:#000;stroke-width:5px;"/><circle cx="229.78" cy="617.495" r="7.5" style="fill:#ebebeb;fill-opacity:0;stroke:#000;stroke-width:5px;"/><circle cx="274.78" cy="617.495" r="7.5" style="fill:#ebebeb;fill-opacity:0;stroke:#000;stroke-width:5px;"/></g><g id="basketball"><path d="M293.422,437.551c0,0 -13.614,-8.763 -25.366,-20.691c-10.203,-10.355 -17.491,-24.473 -32.044,-20.183" style="fill:none;stroke:#000;stroke-width:5px;"/><path d="M326.519,415.738c0,0 -69.441,-15.449 -86.19,-48.183" style="fill:none;stroke:#000;stroke-width:5px;"/><path d="M307.416,345.99c0,0 -57.787,9.457 -55.269,80.192" style="fill:none;stroke:#000;stroke-width:5px;"/><circle cx="284.879" cy="389.126" r="50" style="fill:#ebebeb;fill-opacity:0;stroke:#000;stroke-width:5px;"/><path d="M331.935,376.751c0,0.029 -10.303,-1.783 -22.918,0c-10.074,1.423 -59.959,3.476 -46.551,-31.371" style="fill:none;stroke:#000;stroke-width:5px;"/></g><g id="Pencil"><path d="M406.106,17.905l-11.066,13.188l107.093,89.862l13.357,0.223l-2.291,-13.411l-107.093,-89.862Z" style="fill:#ebebeb;fill-opacity:0;stroke:#000;stroke-width:5px;"/><path d="M407.433,41.78l11.067,-13.188" style="fill:none;stroke:#000;stroke-width:5px;"/><path d="M502.133,120.955l10.925,-13.019" style="fill:none;stroke:#000;stroke-width:5px;"/></g><g id="Mac"><rect x="415.269" y="227.373" width="132.91" height="93.55" style="fill:#ebebeb;fill-opacity:0;stroke:#000;stroke-width:5px;"/><path d="M415.269,304.292l132.91,0" style="fill:none;stroke:#000;stroke-width:5px;"/><path d="M483.119,321.177l15.577,0l0,11.827c0,2.652 1.915,4.827 4.335,5l0,3.955l-20.644,0l0,-0.038l-21.086,0l0,-3.953c2.557,-0.174 4.581,-2.347 4.581,-4.999l0,-11.823l17.237,0l0,0.031Z" style="fill:#ebebeb;fill-opacity:0;stroke:#000;stroke-width:5px;"/></g><g id="Terminal"><path d="M92.833,542.803l14.425,0" style="fill:none;stroke:#000;stroke-width:5px;"/><path d="M75.429,521.975l12.762,9.642" style="fill:none;stroke:#000;stroke-width:5px;"/><path d="M77.266,540.18l10.925,-8.563" style="fill:none;stroke:#000;stroke-width:5px;"/><rect x="52.254" y="502.175" width="100" height="80" style="fill:#ebebeb;fill-opacity:0;stroke:#000;stroke-width:5px;"/><rect x="62.254" y="512.175" width="80" height="60" style="fill:#ebebeb;fill-opacity:0;stroke:#000;stroke-width:5px;"/></g><g id="HTML"><g id="_1" serif:id="1"><path d="M120.555,102.063l-23,18.033" style="fill:none;stroke:#000;stroke-width:5px;"/><path d="M120.461,138.363l-23,-18" style="fill:none;stroke:#000;stroke-width:5px;"/></g><g id="_11" serif:id="1"><path d="M155.461,102.063l23,18.033" style="fill:none;stroke:#000;stroke-width:5px;"/><path d="M155.555,138.363l23,-18" style="fill:none;stroke:#000;stroke-width:5px;"/></g><path d="M146.534,92.33l-18.882,56.905" style="fill:none;stroke:#000;stroke-width:5px;"/></g><g id="Squash"><path d="M89.864,371.787c0,0 139.122,-1.744 100.009,-54.577c-39.113,-52.833 -100.475,55.575 -100.009,54.577Z" style="fill:none;stroke:#000;stroke-width:5px;"/><path d="M52.828,397.851l-3.886,-6.73l-36.275,20.943l3.886,6.73l36.275,-20.943Zm39.361,-26.256l-1.243,-2.153l-38.21,22.06l1.243,2.153l38.21,-22.06Z" style="fill:#ebebeb;fill-opacity:0;stroke:#000;stroke-width:5px;"/></g><g id="Sock"><path d="M239.254,187.373l0,-54.662l47.524,0l0,66.884c4.483,4.323 7.261,10.316 7.261,16.934c0,13.166 -10.995,23.856 -24.538,23.856c-1.762,0 -3.48,-0.181 -5.137,-0.525l-42.739,21.258c-44.735,7.283 -90.485,-15.36 -28.41,-30.568c14.119,-3.459 35.185,-26.913 46.039,-43.177Z" style="fill:none;stroke:#000;stroke-width:5px;"/><path d="M240.779,147.165l45.093,0" style="fill:none;stroke:#000;stroke-width:5px;"/><path d="M206.699,261.474c0,0 -0.482,-5.763 -6.789,-9.52c-9.382,-5.588 -21.844,-13.221 -16.651,-17.986" style="fill:none;stroke:#000;stroke-width:5px;"/><path d="M292.497,209.238l-18.784,0l0,29.121" style="fill:none;stroke:#000;stroke-width:5px;"/></g><g id="Shapes"><path d="M95.85,189.175l7.292,15.477l-14.584,0l7.292,-15.477Z" style="fill:#ebebeb;fill-opacity:0;stroke:#000;stroke-width:5px;"/><path d="M427.514,658.989l7.292,15.478l-14.584,0l7.292,-15.478Z" style="fill:#ebebeb;fill-opacity:0;stroke:#000;stroke-width:5px;"/><path d="M160.365,472.726l15.478,7.292l0,-14.584l-15.478,7.292Z" style="fill:#ebebeb;fill-opacity:0;stroke:#000;stroke-width:5px;"/><path d="M29.603,652.417l15.477,7.292l0,-14.583l-15.477,7.291Z" style="fill:#ebebeb;fill-opacity:0;stroke:#000;stroke-width:5px;"/><path d="M380.647,303.437l-15.478,-7.292l0,14.584l15.478,-7.292Z" style="fill:#ebebeb;fill-opacity:0;stroke:#000;stroke-width:5px;"/><path d="M214.681,40.138l-15.477,-7.292l0,14.584l15.477,-7.292Z" style="fill:#ebebeb;fill-opacity:0;stroke:#000;stroke-width:5px;"/><path d="M372.099,125.193l7.292,-15.477l-14.584,0l7.292,15.477Z" style="fill:#ebebeb;fill-opacity:0;stroke:#000;stroke-width:5px;"/></g></g><g id="Pattern1"><g id="Controller1" serif:id="Controller"><path d="M646.814,166.496c-0.994,-0.021 11.226,34.071 25.705,27.333c14.237,-6.626 7.861,-19.006 -7.356,-78.175c0,0 1.114,-8.802 -45.957,-8.077" style="fill:none;stroke:#000;stroke-width:5px;"/><path d="M620.861,166.496l24.666,0" style="fill:none;stroke:#000;stroke-width:5px;"/><path d="M593.861,166.496c0.995,-0.021 -11.226,34.071 -25.705,27.333c-14.237,-6.626 -7.86,-19.006 7.357,-78.175c0,0 -1.114,-8.802 45.956,-8.077" style="fill:none;stroke:#000;stroke-width:5px;"/><path d="M593.861,166.496l24.666,0" style="fill:none;stroke:#000;stroke-width:5px;"/><circle cx="597.313" cy="138.505" r="7.5" style="fill:#ebebeb;fill-opacity:0;stroke:#000;stroke-width:5px;"/><circle cx="642.313" cy="138.505" r="7.5" style="fill:#ebebeb;fill-opacity:0;stroke:#000;stroke-width:5px;"/></g><g id="basketball1" serif:id="basketball"><path d="M786.301,691.567c0,0 -13.615,-8.762 -25.367,-20.69c-10.203,-10.355 -17.491,-24.473 -32.043,-20.184" style="fill:none;stroke:#000;stroke-width:5px;"/><path d="M819.398,669.755c0,0 -69.441,-15.449 -86.19,-48.184" style="fill:none;stroke:#000;stroke-width:5px;"/><path d="M800.295,600.006c0,0 -57.787,9.458 -55.269,80.193" style="fill:none;stroke:#000;stroke-width:5px;"/><circle cx="777.757" cy="643.142" r="50" style="fill:#ebebeb;fill-opacity:0;stroke:#000;stroke-width:5px;"/><path d="M824.814,630.767c0,0.03 -10.303,-1.783 -22.919,0c-10.073,1.424 -59.958,3.477 -46.55,-31.371" style="fill:none;stroke:#000;stroke-width:5px;"/></g><g id="Mac1" serif:id="Mac"><rect x="718.58" y="187.819" width="132.91" height="93.55" style="fill:#ebebeb;fill-opacity:0;stroke:#000;stroke-width:5px;"/><path d="M718.58,264.738l132.911,0" style="fill:none;stroke:#000;stroke-width:5px;"/><path d="M786.431,281.623l15.577,0l0,11.827c0,2.652 1.915,4.827 4.335,5l0,3.955l-20.644,0l0,-0.038l-21.087,0l0,-3.953c2.558,-0.174 4.582,-2.347 4.582,-4.999l0,-11.823l17.237,0l0,0.031Z" style="fill:#ebebeb;fill-opacity:0;stroke:#000;stroke-width:5px;"/></g><g id="Terminal1" serif:id="Terminal"><path d="M770.8,60.673l14.425,0" style="fill:none;stroke:#000;stroke-width:5px;"/><path d="M753.396,39.845l12.762,9.642" style="fill:none;stroke:#000;stroke-width:5px;"/><path d="M755.233,58.051l10.925,-8.564" style="fill:none;stroke:#000;stroke-width:5px;"/><rect x="730.221" y="20.046" width="100" height="80" style="fill:#ebebeb;fill-opacity:0;stroke:#000;stroke-width:5px;"/><rect x="740.221" y="30.046" width="80" height="60" style="fill:#ebebeb;fill-opacity:0;stroke:#000;stroke-width:5px;"/></g><g id="HTML1" serif:id="HTML"><g id="_12" serif:id="1"><path d="M613.434,356.08l-23,18.033" style="fill:none;stroke:#000;stroke-width:5px;"/><path d="M613.34,392.379l-23,-18" style="fill:none;stroke:#000;stroke-width:5px;"/></g><g id="_13" serif:id="1"><path d="M648.34,356.08l23,18.033" style="fill:none;stroke:#000;stroke-width:5px;"/><path d="M648.434,392.379l23,-18" style="fill:none;stroke:#000;stroke-width:5px;"/></g><path d="M639.413,346.347l-18.883,56.904" style="fill:none;stroke:#000;stroke-width:5px;"/></g><g id="Squash1" serif:id="Squash"><path d="M582.743,625.803c0,0 139.122,-1.744 100.009,-54.577c-39.114,-52.832 -100.476,55.576 -100.009,54.577Z" style="fill:none;stroke:#000;stroke-width:5px;"/><path d="M545.706,651.868l-3.886,-6.731l-36.274,20.943l3.886,6.731l36.274,-20.943Zm39.362,-26.257l-1.243,-2.153l-38.21,22.061l1.243,2.152l38.21,-22.06Z" style="fill:#ebebeb;fill-opacity:0;stroke:#000;stroke-width:5px;"/></g><g id="Sock1" serif:id="Sock"><path d="M732.132,441.39l0,-54.662l47.524,0l0,66.883c4.484,4.324 7.262,10.316 7.262,16.934c0,13.167 -10.995,23.856 -24.538,23.856c-1.762,0 -3.481,-0.181 -5.137,-0.524l-42.74,21.258c-44.734,7.282 -90.484,-15.36 -28.409,-30.568c14.119,-3.459 35.184,-26.913 46.038,-43.177Z" style="fill:none;stroke:#000;stroke-width:5px;"/><path d="M733.658,401.182l45.092,0" style="fill:none;stroke:#000;stroke-width:5px;"/><path d="M699.578,515.491c0,0 -0.483,-5.764 -6.789,-9.52c-9.382,-5.589 -21.844,-13.221 -16.651,-17.986" style="fill:none;stroke:#000;stroke-width:5px;"/><path d="M785.376,463.255l-18.785,0l0,29.121" style="fill:none;stroke:#000;stroke-width:5px;"/></g><g id="Shapes1" serif:id="Shapes"><path d="M588.729,443.192l7.292,15.477l-14.584,0l7.292,-15.477Z" style="fill:#ebebeb;fill-opacity:0;stroke:#000;stroke-width:5px;"/><path d="M707.56,294.155l-15.478,-7.292l0,14.584l15.478,-7.292Z" style="fill:#ebebeb;fill-opacity:0;stroke:#000;stroke-width:5px;"/></g></g></svg>