<svg width="100%" height="100%" viewBox="0 0 501 41" version="1.1" xmlns="http://www.w3.org/2000/svg" style="fill-rule:evenodd;clip-rule:evenodd;stroke-linecap:round;stroke-linejoin:round;stroke-miterlimit:1.5;">
<path d="M0.5,34.444l237.878,0l2.515,-22.113l-2.515,-2.307l0,-3.519l2.515,0l0,-3.609l3.148,-2.396l3.104,2.396l0,3.609l3.293,0l0,3.519l-3.293,2.307l2.292,10.262c5.591,0.07 16.402,0 16.402,0l0.742,17.744c0,0 221.721,0.006 233.56,0" style="fill-opacity:0;stroke:#000;stroke-width:1px;"/>
<g id="windows">
  <rect x="243.476" y="23.909" width="3.111" height="6.226" style="fill:#ebebeb;fill-opacity:0;stroke:#000;stroke-width:1px;"/>
  <rect x="242.461" y="3.415" width="2.438" height="2.728" style="fill:#ebebeb;fill-opacity:0;stroke:#000;stroke-width:1px;"/>
  <rect x="243.476" y="34.137" width="3.111" height="6.226" style="fill:#ebebeb;fill-opacity:0;stroke:#000;stroke-width:1px;"/>
  <rect x="257.941" y="34.143" width="3.111" height="6.226" style="fill:#ebebeb;fill-opacity:0;stroke:#000;stroke-width:1px;"/>
  </g>
</svg>