
<svg width="100%" viewBox="0 0 501 127" version="1.1" xmlns="http://www.w3.org/2000/svg" style="fill-rule:evenodd;clip-rule:evenodd;stroke-linecap:round;stroke-linejoin:round;stroke-miterlimit:1.5;">
<ellipse id="sun" cx="300" cy="80" rx="25" ry="25.009" style="fill:#fff;stroke:#000;"/><path d="M0.5,40.337l237.798,0l2.516,-28.006l-2.516,-2.307l0,-3.519l2.516,0l0,-3.609l3.148,-2.396l3.104,2.396l0,3.609l3.292,0l0,3.519l-3.292,2.307l2.292,10.262c5.591,0.07 16.401,0 16.401,0l0.743,17.744l233.433,0l0,85.671l-499.435,0l0,-85.671Z" style="fill:#fff;stroke-width:1px;"/><g id="windows"><rect x="243.397" y="23.909" width="3.111" height="6.226" style="fill:#ebebeb;fill-opacity:0;stroke-width:1px;"/><rect x="242.382" y="3.415" width="2.438" height="2.728" style="fill:#ebebeb;fill-opacity:0;stroke-width:1px;"/><rect x="243.397" y="34.137" width="3.111" height="6.226" style="fill:#ebebeb;fill-opacity:0;stroke-width:1px;"/><rect x="257.862" y="34.143" width="3.111" height="6.226" style="fill:#ebebeb;fill-opacity:0;stroke-width:1px;"/></g>
</svg>