<svg width="100%" viewBox="0 0 500 300" version="1.1" style="fill-rule:evenodd;clip-rule:evenodd;stroke-linecap:round;stroke-linejoin:round;stroke-miterlimit:1.5;"><path d="M416.46,226.325l0,-27.798l-20.751,-17.4l40.297,1.144c0,0 3.814,1.322 7.993,4.197c3.633,2.5 6.509,8.221 6.509,8.221l0,31.636l-34.048,0Z" /><path d="M416.539,226.384l12.49,0l0,74.67l-8.815,0l0,-74.67l-3.675,0l-38.118,-3.221l0,-26.946c0,0 3.242,-14.562 16.468,-14.847c15.704,-0.339 21.65,14.847 21.65,14.847l0,30.167" /><path id="mailbox-latch" d="M425.784,193.677l-4.18,0l0,4.095l4.18,0l0,-1.015l19.978,0l0,4.091l2.099,0l0,-6.132l-22.077,0l0,-1.039Z" /></svg>