<?xml version="1.0" encoding="UTF-8" standalone="no"?><!DOCTYPE svg PUBLIC "-//W3C//DTD SVG 1.1//EN" "http://www.w3.org/Graphics/SVG/1.1/DTD/svg11.dtd"><svg width="100%" height="100%" viewBox="0 0 239 252" version="1.1" xmlns="http://www.w3.org/2000/svg" xmlns:xlink="http://www.w3.org/1999/xlink" xml:space="preserve" xmlns:serif="http://www.serif.com/" style="fill-rule:evenodd;clip-rule:evenodd;stroke-linecap:round;stroke-linejoin:round;stroke-miterlimit:1.5;"><path id="HeadOutline" d="M187.5,1.5l-105,0l-37,38.043l0,47.312l-43.958,22.688l-0.042,12l12,11l32,0l0,97l37,20l105,-1.969l50,-63.031l0,-120l-50,-63.043Z" style="fill:#ebebeb;fill-opacity:0;stroke:#000;stroke-width:3px;"/><rect id="Mouth" x="65.5" y="212.543" width="67" height="8" style="fill:#ebebeb;fill-opacity:0;stroke:#000;stroke-width:3px;"/><rect id="EyeLeft" x="45.5" y="148.543" width="30" height="30" style="fill:#ebebeb;fill-opacity:0;stroke:#000;stroke-width:3px;"/><rect id="EyeRight" x="133.5" y="148.543" width="30" height="30" style="fill:#ebebeb;fill-opacity:0;stroke:#000;stroke-width:3px;"/><path id="ClawHoof" d="M137.5,47.543c-5,-5.003 -25,-5.003 -30,0c-5,5.004 -5,25.017 0,30.021c5,5.004 25,5.004 30,0c5,-5.004 5,-25.017 0,-30.021Z" style="fill:#ebebeb;fill-opacity:0;stroke:#000;stroke-width:3px;stroke-linejoin:miter;"/><rect id="ClawTop" x="113.5" y="15.543" width="16" height="20" style="fill:#ebebeb;fill-opacity:0;stroke:#000;stroke-width:3px;stroke-linejoin:miter;"/><rect id="ClawRight" x="139.5" y="21.543" width="8" height="20" style="fill:#ebebeb;fill-opacity:0;stroke:#000;stroke-width:3px;stroke-linejoin:miter;"/><rect id="ClawLeft" x="96.5" y="21.543" width="8" height="20" style="fill:#ebebeb;fill-opacity:0;stroke:#000;stroke-width:3px;stroke-linejoin:miter;"/></svg>